<svg width="28" height="28" viewBox="0 0 28 28" fill="none" xmlns="http://www.w3.org/2000/svg">
<path fill-rule="evenodd" clip-rule="evenodd" d="M22.8812 14.5459L22.9187 22.9765C22.9227 23.9389 22.1227 24.7263 21.1498 24.7263H17.1214V19.4174C17.1214 18.2005 16.115 17.2037 14.8834 17.2037H12.9416C11.7114 17.2037 10.7036 18.2005 10.7036 19.4174V24.7263H6.92454C5.95162 24.7263 5.1556 23.9389 5.1556 22.9765L5.14756 14.5459H3.44562C2.1819 14.5459 2.02511 13.7161 2.82247 12.926L13.1935 2.66739C13.6438 2.222 14.3809 2.222 14.8312 2.66739L25.2022 12.926C25.8321 13.549 25.954 14.5459 24.7198 14.5459H22.8812Z" stroke="#616161" stroke-width="1.5" stroke-linejoin="round"/>
</svg>
